# xmcd
#
# Track frame offsets:
# 150
# 15475
# 31380
# 49350
# 66390
# 81365
# 95065
# 107705
# 123790
# 135390
# 151080
# 165275
# 182270
# 201745
# 221480
# 234010
# 248425
#
# Disc length: 3489 seconds
#
#
# Revision: 1
# Processed by: cddbd v1.5.2PL0 Copyright (c) Steve Scherf et al.
# Submitted via: FreeRIP 2.951 
#
DISCID=d60d9f11
DTITLE=Paraiso Tropical - Paraiso Tropical - Nacional
DYEAR=2007
DGENRE=Pop
TTITLE0=Carvao - Ana Carolina
TTITLE1=Impossivel Acreditar Que Perdi Voce - Toni Platao
TTITLE2=Ruas De Outono - Gal Costa
TTITLE3=Samba Do Aviao - Milton Nascimento
TTITLE4=Voce Nao Sabe Amar - Nana Caymmi
TTITLE5=Voce Vai Ver - Miucha
TTITLE6=Sabado Em Copacabana - Maria Bethania
TTITLE7=Olha - Erasmo Carlos - Participacao Especial Chico Buarque
TTITLE8=Cabide - Mart Nalia
TTITLE9=Nao Enche - Caetano Veloso
TTITLE10=Dificil - Marina Lima
TTITLE11=Espatodea - Nando Reis
TTITLE12=Existe Um Ceu - Simone
TTITLE13=Preciso Dizer Que Te Amo - Cazuza - Bebe - Gilberto
TTITLE14=E Com Esse Que Eu vou - Elis Regina
TTITLE15=Vatapa - Danilo Caymmi
TTITLE16=Alcazar - Roger Henri
EXTD=
EXTT0=
EXTT1=
EXTT2=
EXTT3=
EXTT4=
EXTT5=
EXTT6=
EXTT7=
EXTT8=
EXTT9=
EXTT10=
EXTT11=
EXTT12=
EXTT13=
EXTT14=
EXTT15=
EXTT16=
PLAYORDER=
